<svg xmlns="http://www.w3.org/2000/svg" xml:space="preserve" width="512" height="512" style="enable-background:new 0 0 512 512" viewBox="0 0 24 24"><path fill="#ffffff" d="M22 13a1 1 0 0 0-1 1v4.213A2.79 2.79 0 0 1 18.213 21H5.787A2.79 2.79 0 0 1 3 18.213V14a1 1 0 0 0-2 0v4.213A4.792 4.792 0 0 0 5.787 23h12.426A4.792 4.792 0 0 0 23 18.213V14a1 1 0 0 0-1-1Z" data-original="#000000"/><path fill="#ffffff" d="M6.707 8.707 11 4.414V17a1 1 0 0 0 2 0V4.414l4.293 4.293a1 1 0 0 0 1.414-1.414l-6-6a1 1 0 0 0-1.414 0l-6 6a1 1 0 0 0 1.414 1.414Z" data-original="#000000"/></svg>