<svg width="116" height="90" viewBox="0 0 116 90" fill="none" xmlns="http://www.w3.org/2000/svg">
<path d="M82.2521 22.2438H62.5262H42.8002C41.0362 22.2438 39.678 23.8099 39.9113 25.5691L40.5824 30.6053C40.5824 30.6053 40.5824 30.6085 40.5824 30.6101L40.5856 30.6343C40.6575 31.1477 42.0029 38.8783 57.1237 37.4668C57.1237 37.4668 52.4803 40.3881 51.7468 44.4554C51.0134 48.5243 53.8097 50.784 56.7099 50.784H62.5262H79.2321C80.691 50.784 81.9261 49.696 82.1211 48.2394L85.1427 25.5707C85.376 23.8099 84.0162 22.2438 82.2521 22.2438Z" fill="url(#paint0_linear_9_611)"/>
<path d="M61.4587 41.0158L67.9557 33.7278C68.4654 33.1548 68.0676 32.2438 67.3038 32.2373L57.5806 32.1424C56.5196 32.1327 56.0227 33.4606 56.8264 34.1575L58.3684 35.495C59.137 36.1614 59.5668 37.1432 59.5364 38.1653L59.4741 40.2126C59.4406 41.2829 60.7492 41.8109 61.4587 41.0158Z" fill="url(#paint1_linear_9_611)"/>
<path d="M38.1137 37.2061H30.8849C29.9101 37.2061 29.1128 36.4029 29.1128 35.4211C29.1128 34.4393 29.9101 33.6361 30.8849 33.6361H38.1137C39.0884 33.6361 39.8858 34.4393 39.8858 35.4211C39.8842 36.4029 39.0868 37.2061 38.1137 37.2061Z" fill="url(#paint2_linear_9_611)"/>
<path d="M46.3444 49.4514H39.1156C38.1409 49.4514 37.3435 48.6483 37.3435 47.6664C37.3435 46.6846 38.1409 45.8815 39.1156 45.8815H46.3444C47.3191 45.8815 48.1165 46.6846 48.1165 47.6664C48.1149 48.6483 47.3175 49.4514 46.3444 49.4514Z" fill="url(#paint3_linear_9_611)"/>
<path d="M44.037 43.5299H27.9383C26.8405 43.5299 25.9409 42.6254 25.9409 41.518C25.9409 40.4123 26.8389 39.5061 27.9383 39.5061H44.037C45.1348 39.5061 46.0344 40.4107 46.0344 41.518C46.0344 42.6254 45.1348 43.5299 44.037 43.5299Z" fill="url(#paint4_linear_9_611)"/>
<path d="M79.6971 13.6713H78.6009L78.0529 12.7153L78.6009 11.7592H79.6971L80.2452 12.7153L79.6971 13.6713Z" fill="white"/>
<path d="M78.3309 12.9825V12.4481H74.1956L74.822 11.7995C75.2918 11.315 75.2806 10.5344 74.798 10.0644L72.716 8.02353C72.235 7.55033 71.4648 7.55999 70.9934 8.04768L70.3639 8.69954C70.1625 8.90717 69.9085 9.03915 69.64 9.08904V8.31808L70.9455 7.00309V4.48256L71.5479 4.13168V3.02754L70.5988 2.47546L69.6496 3.02754V4.13168L70.415 4.57752V6.78419L69.1095 8.09918V9.081C69.012 9.06007 68.9162 9.02788 68.8219 8.98442C68.4847 8.82508 68.1364 8.68183 67.7801 8.55629V5.84422L69.0856 4.52923V2.06825L69.795 1.65621V0.552071L68.8475 0L67.8983 0.552071V1.65621L68.5582 2.03928V4.30712L67.2528 5.62211V8.31003C66.9124 8.06377 66.6983 7.663 66.6919 7.2252L66.6791 6.31582C66.6695 5.63659 66.1183 5.09579 65.444 5.10545L63.9084 5.12637V11.7432H63.8892V16.6716L63.2053 17.0691V18.1733L64.1545 18.7253L65.1036 18.1733V17.0691L64.4197 16.6716V12.3033C64.4884 12.3049 64.5571 12.3065 64.6258 12.3113C64.9215 12.3306 65.2123 12.3709 65.4983 12.4288V14.2154L64.8144 14.613V15.7171L65.7635 16.2692L66.7127 15.7171V14.613L66.0288 14.2154V12.5608C66.4554 12.6864 66.8661 12.857 67.2544 13.063V18.2747L66.4874 18.7205V19.8246L67.4365 20.3767L68.3857 19.8246V18.7205L67.7849 18.3712V13.3801C69.4291 14.4633 70.5764 16.2644 70.7665 18.3294C70.832 19.0376 70.7841 19.7249 70.6435 20.3783H77.9283C77.9331 20.3316 77.9363 20.2834 77.9347 20.2351L77.8947 17.3089C77.8867 16.6313 77.3323 16.0889 76.6595 16.0986L75.7567 16.1098C75.1815 16.1179 74.6638 15.7606 74.4688 15.2149C74.4337 15.1168 74.3969 15.0186 74.3586 14.922H76.0204V14.3876H74.1317C74.0742 14.2605 74.015 14.1333 73.9527 14.0094C73.7897 13.6827 73.769 13.3141 73.876 12.9809H78.3309V12.9825ZM70.0746 3.88542V3.2754L70.6003 2.96959L71.1261 3.2754V3.88542L70.6003 4.19123L70.0746 3.88542ZM68.3234 1.40995V0.798329L68.8491 0.492518L69.3748 0.798329V1.40834L68.8491 1.71415L68.3234 1.40995ZM64.6786 17.3154V17.9254L64.1529 18.2312L63.6272 17.9254V17.3154L64.1529 17.0096L64.6786 17.3154ZM66.2876 14.8592V15.4692L65.7619 15.7751L65.2362 15.4692V14.8592L65.7619 14.5534L66.2876 14.8592ZM67.959 18.9684V19.5784L67.4333 19.8842L66.9076 19.5784V18.9684L67.4333 18.6626L67.959 18.9684Z" fill="white"/>
<path d="M77.385 15.6109H76.2888L75.7407 14.6548L76.2888 13.6987H77.385L77.933 14.6548L77.385 15.6109Z" fill="white"/>
<path d="M62.865 0.534302C57.683 0.672722 52.9868 2.76834 49.4811 6.11617L53.038 9.69899C55.6361 7.26377 59.0716 5.7331 62.8666 5.58985V0.534302H62.865Z" fill="url(#paint5_linear_9_611)"/>
<path d="M62.8649 6.68921C59.3703 6.83085 56.2081 8.23758 53.8097 10.4764L57.2404 13.9321C58.7568 12.5737 60.7094 11.7093 62.8665 11.5774V6.68921H62.8649Z" fill="url(#paint6_linear_9_611)"/>
<path d="M62.865 15.2535V12.6766C61.0099 12.8054 59.3273 13.5506 58.0106 14.7111L60.0112 16.7262C60.7606 15.952 61.7529 15.4193 62.865 15.2535Z" fill="url(#paint7_linear_9_611)"/>
<path d="M52.4339 10.2897C49.9444 12.9342 48.3864 16.4736 48.2842 20.3783H52.0408C52.1463 17.5182 53.2824 14.93 55.0928 12.9696L52.4339 10.2897Z" fill="white"/>
<path d="M55.6713 13.5523C54.0095 15.3614 52.9629 17.7451 52.8574 20.3783H56.4878C56.5869 18.7543 57.2292 17.28 58.2375 16.1372L55.6713 13.5523Z" fill="white"/>
<path d="M59.4311 17.3396L58.8159 16.7215C57.9531 17.7146 57.4002 18.9813 57.3043 20.38H58.3669C58.5219 19.2855 58.8894 18.257 59.4311 17.3396Z" fill="white"/>
<circle cx="60.9955" cy="55.4519" r="2.16046" fill="white"/>
<circle cx="73.2381" cy="55.4519" r="2.16046" fill="white"/>
<path d="M2.51578 88.7742C1.73748 88.4227 1.12726 87.9332 0.685126 87.3075C0.242991 86.6836 0.014616 85.9604 0 85.1396H2.0773C2.14856 85.8444 2.43722 86.437 2.94513 86.9192C3.45304 87.4013 4.19115 87.6424 5.16129 87.6424C6.0894 87.6424 6.82021 87.4087 7.35734 86.9413C7.89266 86.4738 8.1594 85.8739 8.1594 85.1396C8.1594 84.5654 8.00228 84.098 7.68803 83.7391C7.37379 83.3802 6.98098 83.106 6.51144 82.9202C6.04007 82.7343 5.4061 82.5319 4.60588 82.3147C3.62112 82.0571 2.83186 81.7976 2.23991 81.5399C1.64796 81.2804 1.14005 80.8737 0.71984 80.3216C0.297802 79.7677 0.0876962 79.0242 0.0876962 78.0893C0.0876962 77.2685 0.295975 76.5434 0.708877 75.9104C1.12178 75.2773 1.70459 74.7878 2.45367 74.4436C3.20456 74.0995 4.06326 73.9265 5.0334 73.9265C6.43288 73.9265 7.57841 74.2799 8.46999 74.9847C9.36157 75.6895 9.86582 76.6244 9.97909 77.7893H7.83602C7.76477 77.2133 7.46514 76.7072 6.93713 76.2692C6.40913 75.8294 5.70939 75.6122 4.83791 75.6122C4.02489 75.6122 3.36169 75.8239 2.8483 76.2472C2.33491 76.6723 2.0773 77.2649 2.0773 78.0267C2.0773 78.5733 2.23077 79.0187 2.53771 79.3628C2.84464 79.7088 3.22283 79.972 3.67228 80.1505C4.12172 80.3308 4.75386 80.5351 5.56871 80.7651C6.55346 81.0375 7.34456 81.308 7.94564 81.573C8.5449 81.8399 9.05828 82.2484 9.4858 82.8024C9.91332 83.3563 10.1289 84.1072 10.1289 85.0568C10.1289 85.7892 9.93707 86.4812 9.55158 87.1271C9.16608 87.7749 8.59605 88.2994 7.83785 88.7024C7.08147 89.1055 6.18989 89.3061 5.16129 89.3061C4.1747 89.3024 3.29409 89.1276 2.51578 88.7742Z" fill="white"/>
<path d="M29.5481 77.6881C30.2607 78.0691 30.8252 78.6414 31.2381 79.4033C31.651 80.1652 31.8593 81.0927 31.8593 82.1859V89.1515H29.9318V82.4656C29.9318 81.2878 29.6431 80.386 29.064 79.7603C28.4866 79.1346 27.7047 78.8218 26.7199 78.8218C25.7078 78.8218 24.9002 79.1493 24.301 79.8045C23.6999 80.4578 23.4003 81.4037 23.4003 82.6404V89.1533H21.4728V82.4674C21.4728 81.2896 21.1841 80.3879 20.605 79.7622C20.0276 79.1365 19.2457 78.8236 18.2609 78.8236C17.2487 78.8236 16.4412 79.1512 15.842 79.8063C15.2409 80.4596 14.9412 81.4056 14.9412 82.6423V89.1552H12.9955V77.3366H14.9449V79.0408C15.3304 78.4224 15.8474 77.9476 16.4979 77.6163C17.1464 77.2851 17.8644 77.1195 18.6501 77.1195C19.6348 77.1195 20.5045 77.344 21.2608 77.7893C22.0172 78.2347 22.5818 78.8898 22.9527 79.7511C23.2815 78.9174 23.8223 78.2697 24.5805 77.8096C25.3351 77.3495 26.1773 77.1195 27.1073 77.1195C28.0189 77.1176 28.832 77.309 29.5481 77.6881Z" fill="white"/>
<path d="M35.051 80.0198C35.5352 79.107 36.2038 78.3985 37.0534 77.8942C37.9011 77.3918 38.8475 77.1397 39.8889 77.1397C40.9175 77.1397 41.8091 77.3624 42.5655 77.8077C43.3218 78.2531 43.8864 78.8144 44.2554 79.4898V77.3329H46.2268V89.1515H44.2554V86.9523C43.8699 87.6424 43.2944 88.2129 42.5326 88.6656C41.7689 89.1202 40.881 89.3466 39.867 89.3466C38.8256 89.3466 37.8829 89.0871 37.0406 88.5699C36.1984 88.0528 35.5333 87.3259 35.0492 86.391C34.5632 85.4561 34.322 84.3924 34.322 83.1999C34.322 81.9926 34.565 80.9326 35.051 80.0198ZM43.722 80.8921C43.3639 80.2296 42.8834 79.7235 42.2768 79.372C41.6702 79.0187 41.0034 78.842 40.2744 78.842C39.5473 78.842 38.8822 79.015 38.283 79.3591C37.6837 79.7051 37.205 80.2094 36.8488 80.8682C36.4907 81.5307 36.3135 82.3073 36.3135 83.198C36.3135 84.1035 36.4907 84.8911 36.8488 85.5592C37.2069 86.2291 37.6837 86.7388 38.283 87.0903C38.8822 87.4437 39.5473 87.6203 40.2744 87.6203C41.0015 87.6203 41.6702 87.4437 42.2768 87.0903C42.8815 86.7388 43.3639 86.2291 43.722 85.5592C44.0782 84.8911 44.2573 84.1108 44.2573 83.2201C44.2573 82.3294 44.0782 81.5546 43.722 80.8921Z" fill="white"/>
<path d="M52.9392 77.679C53.5732 77.3054 54.3497 77.1177 55.2613 77.1177V79.1457H54.7479C52.5628 79.1457 51.4721 80.3401 51.4721 82.727V89.1534H49.5245V77.3348H51.4721V79.2543C51.8138 78.5771 52.3034 78.0526 52.9392 77.679Z" fill="white"/>
<path d="M59.8855 78.9506V85.9162C59.8855 86.4922 60.0061 86.899 60.2491 87.1345C60.4921 87.3719 60.9123 87.4897 61.5134 87.4897H62.9476V89.1497H61.1918C60.1066 89.1497 59.2936 88.8975 58.7509 88.3951C58.2083 87.8909 57.9379 87.0646 57.9379 85.9144V78.9488H56.4178V77.3311H57.9379V74.3572H59.8855V77.333H62.9476V78.9506H59.8855Z" fill="white"/>
<path d="M71.2787 77.6679C71.9346 76.4974 72.8298 75.5791 73.9644 74.9184C75.099 74.2578 76.3596 73.9265 77.7445 73.9265C79.3705 73.9265 80.7901 74.3222 82.005 75.1135C83.2182 75.903 84.1024 77.0256 84.6597 78.4776H82.3266C81.9119 77.5722 81.3163 76.8747 80.538 76.3852C79.7597 75.8975 78.8279 75.6527 77.7445 75.6527C76.7013 75.6527 75.7677 75.8975 74.94 76.3852C74.1106 76.8747 73.462 77.5685 72.9906 78.4666C72.5211 79.3647 72.2854 80.4192 72.2854 81.6264C72.2854 82.8208 72.5211 83.8661 72.9906 84.7642C73.462 85.6622 74.1106 86.3579 74.94 86.8456C75.7677 87.3351 76.7013 87.578 77.7445 87.578C78.8279 87.578 79.7597 87.3369 80.538 86.8548C81.3163 86.3726 81.91 85.6788 82.3266 84.7734H84.6597C84.1024 86.2125 83.2182 87.3222 82.005 88.1062C80.7919 88.8902 79.3705 89.2821 77.7445 89.2821C76.3596 89.2821 75.1008 88.9546 73.9644 88.2994C72.8298 87.6461 71.9328 86.737 71.2787 85.5702C70.621 84.4053 70.294 83.0913 70.294 81.6246C70.2921 80.1597 70.621 78.8402 71.2787 77.6679Z" fill="white"/>
<path d="M87.55 80.0198C88.0342 79.107 88.7029 78.3985 89.5524 77.8942C90.4001 77.3918 91.3465 77.1397 92.3879 77.1397C93.4165 77.1397 94.3081 77.3624 95.0645 77.8077C95.8209 78.2531 96.3854 78.8144 96.7545 79.4898V77.3329H98.7258V89.1515H96.7545V86.9523C96.369 87.6424 95.7935 88.2129 95.0316 88.6656C94.2679 89.1202 93.38 89.3466 92.366 89.3466C91.3246 89.3466 90.3819 89.0871 89.5396 88.5699C88.6974 88.0528 88.0324 87.3259 87.5482 86.391C87.0622 85.4561 86.821 84.3924 86.821 83.1999C86.821 81.9926 87.064 80.9326 87.55 80.0198ZM96.221 80.8921C95.8629 80.2296 95.3824 79.7235 94.7758 79.372C94.1693 79.0187 93.5024 78.842 92.7734 78.842C92.0463 78.842 91.3813 79.015 90.782 79.3591C90.1827 79.7051 89.7041 80.2094 89.3478 80.8682C88.9897 81.5307 88.8125 82.3073 88.8125 83.198C88.8125 84.1035 88.9897 84.8911 89.3478 85.5592C89.7059 86.2291 90.1827 86.7388 90.782 87.0903C91.3813 87.4437 92.0463 87.6203 92.7734 87.6203C93.5006 87.6203 94.1693 87.4437 94.7758 87.0903C95.3806 86.7388 95.8629 86.2291 96.221 85.5592C96.5772 84.8911 96.7563 84.1108 96.7563 83.2201C96.7563 82.3294 96.5772 81.5546 96.221 80.8921Z" fill="white"/>
<path d="M105.438 77.679C106.072 77.3054 106.849 77.1177 107.76 77.1177V79.1457H107.247C105.062 79.1457 103.971 80.3401 103.971 82.727V89.1534H102.024V77.3348H103.971V79.2543C104.315 78.5771 104.802 78.0526 105.438 77.679Z" fill="white"/>
<path d="M112.386 78.9506V85.9162C112.386 86.4922 112.507 86.899 112.75 87.1345C112.993 87.3701 113.413 87.4897 114.014 87.4897H115.448V89.1497H113.693C112.607 89.1497 111.794 88.8975 111.252 88.3951C110.709 87.8909 110.439 87.0646 110.439 85.9144V78.9488H108.919V77.3311H110.439V74.3572H112.386V77.333H115.448V78.9506H112.386Z" fill="white"/>
<defs>
<linearGradient id="paint0_linear_9_611" x1="43.5163" y1="41.3927" x2="86.4881" y2="29.5848" gradientUnits="userSpaceOnUse">
<stop stop-color="#F2391A"/>
<stop offset="1" stop-color="#FF8B03"/>
</linearGradient>
<linearGradient id="paint1_linear_9_611" x1="99.9606" y1="18.6433" x2="37.0693" y2="46.1349" gradientUnits="userSpaceOnUse">
<stop stop-color="#F3FAED"/>
<stop offset="0.9889" stop-color="#B7E3FF"/>
</linearGradient>
<linearGradient id="paint2_linear_9_611" x1="29.1122" y1="35.4221" x2="39.8848" y2="35.4221" gradientUnits="userSpaceOnUse">
<stop stop-color="#F2391A"/>
<stop offset="1" stop-color="#FF8B03"/>
</linearGradient>
<linearGradient id="paint3_linear_9_611" x1="37.3429" y1="47.6664" x2="48.1155" y2="47.6664" gradientUnits="userSpaceOnUse">
<stop stop-color="#F2391A"/>
<stop offset="1" stop-color="#FF8B03"/>
</linearGradient>
<linearGradient id="paint4_linear_9_611" x1="25.9417" y1="41.5183" x2="46.0343" y2="41.5183" gradientUnits="userSpaceOnUse">
<stop stop-color="#F2391A"/>
<stop offset="1" stop-color="#FF8B03"/>
</linearGradient>
<linearGradient id="paint5_linear_9_611" x1="49.7478" y1="7.08954" x2="63.6194" y2="3.27787" gradientUnits="userSpaceOnUse">
<stop stop-color="#F2391A"/>
<stop offset="1" stop-color="#FF8B03"/>
</linearGradient>
<linearGradient id="paint6_linear_9_611" x1="54.1612" y1="11.7572" x2="63.549" y2="9.17755" gradientUnits="userSpaceOnUse">
<stop stop-color="#F2391A"/>
<stop offset="1" stop-color="#FF8B03"/>
</linearGradient>
<linearGradient id="paint7_linear_9_611" x1="58.231" y1="15.5089" x2="63.2637" y2="14.126" gradientUnits="userSpaceOnUse">
<stop stop-color="#F2391A"/>
<stop offset="1" stop-color="#FF8B03"/>
</linearGradient>
</defs>
</svg>
