<svg width="351" height="262" viewBox="0 0 351 262" fill="none" xmlns="http://www.w3.org/2000/svg">
<path d="M114.767 68.4286L59.0325 143.972C58.0206 145.343 56.0881 145.635 54.7162 144.623C54.4475 144.425 54.2128 144.185 54.0211 143.912C52.5314 141.788 52.4773 138.974 53.8842 136.794L111.991 46.7864C116.636 39.5918 126.235 37.5235 133.432 42.1669C133.677 42.3247 133.917 42.4894 134.152 42.6607L190.065 83.3671C195.759 87.5126 203.533 87.3013 208.993 82.8525L289.294 17.4274L282.626 8.19293C280.955 5.87855 281.477 2.64814 283.792 0.977613C284.673 0.342056 285.732 0 286.818 0H329.05C331.906 0 334.22 2.31387 334.22 5.16816C334.22 5.71785 334.132 6.26402 333.96 6.78607L320.512 47.5737C319.618 50.2845 316.695 51.7577 313.984 50.8641C313.12 50.5795 312.347 50.0722 311.742 49.3934L302.409 38.9197L208.872 112.659C202.954 117.324 194.537 117.061 188.922 112.034L137.595 66.0817C131.214 60.3692 121.409 60.9093 115.695 67.2881C115.368 67.6534 115.058 68.034 114.767 68.4286Z" fill="#FFA24B"/>
<path d="M345.883 199.379H46.0283V208.705H345.883C348.459 208.705 350.546 206.617 350.546 204.042C350.546 201.467 348.459 199.379 345.883 199.379Z" fill="url(#paint0_linear_26_110)"/>
<path d="M263.052 139.367H179.421C178.723 139.367 178.103 139.813 177.882 140.475L158.347 198.973H244.272L263.821 140.435C263.963 140.01 263.734 139.551 263.309 139.409C263.226 139.381 263.139 139.367 263.052 139.367Z" fill="#020206"/>
<path d="M258.588 142.207H181.651C180.956 142.207 180.338 142.65 180.115 143.309L162.402 195.73H241.633L259.357 143.277C259.5 142.853 259.272 142.393 258.848 142.249C258.764 142.221 258.677 142.207 258.588 142.207Z" fill="#F6E7FF"/>
<path d="M245.527 195.729H142.534V199.784H241.472C243.674 199.784 245.465 198.029 245.525 195.843L245.527 195.729Z" fill="#020206"/>
<path d="M319.323 208.704V260.606H310.808V208.704H319.323Z" fill="#251359"/>
<path d="M236.834 120.755L236.96 120.266L237.146 119.495L237.28 118.896L237.376 118.44L237.44 118.103C237.711 116.634 237.739 115.552 237.162 115.513C236.14 115.443 234.154 118.938 232.311 124.003L226.709 123.285L227.513 122.074L227.873 121.915L228.22 121.754C230.583 120.642 231.481 119.721 230.913 118.991C230.292 118.193 227.713 118.604 223.178 120.224C221.158 122.113 216.361 124.767 214.992 126.407L214.507 126.947L213.786 127.759L213.4 128.199C212.265 129.498 211.347 130.602 210.63 131.537C209.909 132.105 209.473 132.659 209.53 133.071C209.281 133.456 209.083 133.798 208.935 134.101C201.065 146.579 177.822 169.653 164.416 187.393L163.61 186.427L162.813 185.462C149.748 169.574 134.292 147.299 123.198 140.144C110.834 132.171 81.3465 147.185 92.1582 159.07C135.473 199.188 159.803 219.247 165.146 219.247C170.49 219.247 177.093 212.401 184.956 198.708L186.616 195.632C194.196 181.539 204.832 161.215 218.521 134.662L219.145 134.533C219.251 134.511 219.356 134.49 219.463 134.468L220.321 134.198L221.069 133.967L221.808 133.742L222.537 133.525L223.411 133.269C230.243 131.288 235.642 130.16 238.112 128.867L238.789 128.385L239.212 128.081C246.041 123.142 249.69 119.215 249.115 118.18L249.042 118.06C248.249 116.888 246.044 119.32 239.693 122.391L240.025 121.883L240.386 121.317L240.621 120.94L240.957 120.386L241.132 120.09C243.002 116.901 243.809 114.549 242.879 114.248C241.958 113.951 239.575 116.785 236.834 120.755Z" fill="#FFBDA3"/>
<path d="M185.211 162.762L183.315 164.9C176.517 172.576 169.702 180.4 164.417 187.394L163.611 186.427L162.814 185.462C149.749 169.574 134.293 147.299 123.199 140.144C110.835 132.171 73.2379 155.295 84.0495 167.18L86.8859 169.613C132.799 208.953 158.374 228.623 163.611 228.623C171.626 228.623 191.13 194.511 194.946 187.273C201.409 175.016 195 151.734 185.211 162.762Z" fill="#E16EFD"/>
<path d="M109.129 120.829C108.295 120.076 80.9992 100.02 78.2487 99.4431C65.8187 96.8382 39.2228 98.0693 30.6313 100.808C27.2405 101.888 33.2993 141.368 48.8077 219.247L34.2866 260.201L137.138 261.012L136.552 260.009C127.074 243.73 122.039 231.539 121.448 225.058C121.085 221.085 128.059 210.918 128.384 207.784C130.093 191.345 112.975 131.544 112.404 128.602C111.596 124.45 112.64 124 109.129 120.829Z" fill="#E16EFD"/>
<path d="M94.9095 162.074H8.75811C4.27926 162.074 0.648438 165.705 0.648438 170.184C0.648438 170.571 0.676085 170.957 0.731168 171.339L13.6389 261.012H116.177L102.936 169.028C102.362 165.037 98.942 162.074 94.9095 162.074Z" fill="url(#paint1_linear_26_110)"/>
<path d="M94.4184 176.623L106.024 259.335C106.055 259.557 105.901 259.762 105.679 259.793C105.457 259.824 105.252 259.67 105.221 259.448L93.6153 176.735C93.5842 176.514 93.7388 176.309 93.9605 176.277C94.1823 176.246 94.3873 176.401 94.4184 176.623Z" fill="white"/>
<path d="M187.947 225.734H144.561C138.353 225.734 133.309 230.716 133.209 236.9L133.207 237.088H199.301C199.301 230.818 194.218 225.734 187.947 225.734Z" fill="url(#paint2_linear_26_110)"/>
<path d="M194.84 231.817H139.837C139.613 231.817 139.432 231.636 139.432 231.412C139.432 231.188 139.613 231.006 139.837 231.006H194.84C195.064 231.006 195.245 231.188 195.245 231.412C195.245 231.636 195.064 231.817 194.84 231.817Z" fill="white"/>
<path d="M121.183 72.5092L121.227 72.5228C125.222 74.1273 149.182 50.3448 142.274 39.4841C131.145 21.9856 128.814 39.1729 86.1965 37.9396C85.7998 32.9947 81.8055 25.5784 76.908 24.5398C69.5618 22.9818 46.2877 35.2187 55.5104 40.5404C61.6589 44.0882 69.0178 45.0725 77.5873 43.4931C62.8436 56.2998 58.6453 77.4928 51.3069 79.597C29.4506 85.8642 50.0201 94.437 34.8193 95.7861C30.2517 96.1914 11.6123 105.099 24.542 125.25C25.6612 126.994 19.6244 134.133 20.8263 140.83C21.6275 145.294 24.9977 149.363 30.9369 153.035C28.7522 160.786 33.515 168.859 45.2252 177.254C62.7905 189.847 81.7689 167.597 91.0939 169.121C100.993 170.74 108.44 169.032 112.525 165.104C116.855 160.941 117.04 153.963 113.08 144.17C116.319 148.064 128.3 137.533 121.124 119.785C119.626 116.08 114.919 112.108 107.003 107.872L107.482 106.438C115.152 83.4963 119.719 72.1867 121.183 72.5092Z" fill="#4A1713"/>
<path d="M96.1809 73.4096C90.3782 73.5533 86.5876 84.8698 90.4058 89.5922C92.3769 92.0302 95.4164 93.4285 99.5244 93.7872C105.891 98.3795 108.427 103.352 107.132 108.703L107.457 108.705C108.14 108.705 108.679 108.678 109.075 108.627C112.181 108.221 115.932 101.874 118.47 93.7872C124.899 93.4021 119.96 88.4756 120.462 85.6912C121.431 80.3235 121.724 74.8038 120.917 70.0962C121.294 61.1022 113.578 57.2832 112.328 51.5469L112.016 52.5844C108.876 62.8845 111.079 69.3689 106.333 72.5485C105.912 72.8309 106.4 84.099 105.31 84.5981C103.726 85.3237 102.804 81.09 102.68 81.8513L102.507 81.4699C100.051 76.0026 99.9624 73.3159 96.1809 73.4096Z" fill="#FFBDA3"/>
<path d="M118.605 84.354C119.273 84.4985 119.935 83.9127 120.086 83.0455C120.236 82.1784 119.816 81.3583 119.149 81.2138C118.481 81.0693 117.818 81.6551 117.668 82.5223C117.518 83.3894 117.937 84.2095 118.605 84.354Z" fill="#4A1713"/>
<path d="M118.344 75.6349C120.318 75.8733 122.008 75.5083 122.119 74.8195C122.23 74.1308 120.72 73.3792 118.746 73.1408C116.772 72.9024 115.083 73.2675 114.972 73.9562C114.861 74.645 116.371 75.3965 118.344 75.6349Z" fill="#4A1713"/>
<path d="M93.2519 84.9704L93.3577 84.6655L93.4637 84.3742C94.4186 81.8143 95.3944 80.9095 96.3756 81.4356C97.5981 82.091 98.9571 84.3194 100.395 88.1006C100.457 88.2631 100.642 88.344 100.809 88.2814C100.975 88.2188 101.06 88.0363 100.999 87.8738C99.5086 83.9569 98.0914 81.6329 96.6898 80.8815C95.1196 80.0397 93.7767 81.4313 92.6416 84.7783C92.5854 84.9441 92.6764 85.1216 92.8449 85.1746C93.0134 85.2277 93.1957 85.1363 93.2519 84.9704Z" fill="#4A1713"/>
<path d="M98.3347 83.6224C96.2458 84.4286 95.5513 85.4819 96.5396 86.629C96.6525 86.7601 96.8566 86.7757 96.9953 86.6638C97.134 86.5519 97.155 86.3549 97.042 86.2239C96.4141 85.495 96.825 84.8719 98.5634 84.201C98.7308 84.1364 98.8153 83.9545 98.7521 83.7948C98.6889 83.635 98.5021 83.5578 98.3347 83.6224Z" fill="#4A1713"/>
<path d="M109.728 49.1796C109.766 49.0042 109.654 48.8291 109.478 48.7887C109.302 48.7482 109.128 48.8576 109.091 49.0331C107.752 55.2585 104.72 60.2071 99.9875 63.8913C95.2396 67.5878 90.2952 69.744 85.151 70.3652C84.9727 70.3867 84.8479 70.5491 84.8722 70.7278C84.8965 70.9065 85.0607 71.034 85.239 71.0125C90.5041 70.3766 95.5565 68.1734 100.393 64.4081C105.245 60.6305 108.358 55.5502 109.728 49.1796Z" fill="white"/>
<path d="M115.672 100.472C113.051 101.05 111.189 100.397 110.199 98.5023C110.099 98.3124 110.173 98.0781 110.362 97.9788C110.552 97.8795 110.786 97.953 110.886 98.1428C111.698 99.6958 113.2 100.223 115.505 99.7147C115.714 99.6685 115.921 99.8008 115.967 100.01C116.014 100.219 115.882 100.426 115.672 100.472Z" fill="#4A1713"/>
<path d="M161.988 237.089V261.013H153.473V237.089H161.988Z" fill="#251359"/>
<path d="M127.641 204.634L111.148 192.025C110.97 191.889 110.936 191.635 111.072 191.457C111.208 191.279 111.462 191.245 111.64 191.381L128.134 203.99C128.311 204.126 128.345 204.38 128.209 204.558C128.073 204.736 127.819 204.77 127.641 204.634Z" fill="#423565"/>
<path d="M288.919 119.3L289.411 119.289L289.899 119.282C294.474 119.231 297.33 119.681 298.468 120.631C302.518 124.015 300.682 130.346 295.44 132.2C284.031 136.237 278.187 135.816 275.642 141.395L275.386 141.202L275.133 141.004C272.389 138.813 269.075 134.724 271.518 126.45C274.115 117.656 280.293 110.271 284.606 111.038C287.481 111.55 288.919 114.304 288.919 119.3Z" fill="#8DB558"/>
<path d="M296.453 138.169C293.772 140.611 294.987 145.179 298.459 146.518C306.013 149.431 309.882 149.127 311.568 153.154L311.744 153.008C313.588 151.463 315.964 148.516 314.299 142.368C312.579 136.021 297.662 137.068 296.453 138.169Z" fill="#8DB558"/>
<path d="M288.801 145.297C292.931 145.297 294.996 146.732 294.996 149.603C294.996 155.413 292.089 157.635 287.074 159.475L286.748 159.594C275.398 163.652 278.218 168.605 267.828 167.055L268.075 166.313L268.293 165.649C270.516 158.773 269.06 160.805 271.491 152.486C274.074 143.644 280.22 136.218 284.511 136.99C287.371 137.504 288.801 140.273 288.801 145.297Z" fill="#8DB558"/>
<path d="M285.263 121.91C291.828 115.462 296.544 116.027 298.594 123.683C300.52 130.879 300.246 144.599 297.792 164.913L296.418 164.746L296.561 163.545L296.697 162.384C298.869 143.538 299.049 130.737 297.256 124.043C295.514 117.534 292.111 117.126 286.232 122.901L285.263 121.91Z" fill="#8DB558"/>
<path d="M282.019 146.239C288.584 139.791 293.299 140.356 295.349 148.012C297.276 155.208 297.001 168.928 294.548 189.242L293.174 189.075L293.317 187.875L293.453 186.713C295.625 167.867 295.804 155.066 294.012 148.372C292.27 141.863 288.867 141.455 282.988 147.23L282.019 146.239Z" fill="#8DB558"/>
<path d="M307.16 146.239C300.595 139.791 295.879 140.356 293.829 148.012C291.903 155.208 292.177 168.928 294.63 189.242L296.004 189.075L295.861 187.875L295.726 186.713C293.554 167.867 293.374 155.066 295.166 148.372C296.909 141.863 300.312 141.455 306.191 147.23L307.16 146.239Z" fill="#8DB558"/>
<path d="M289.539 198.973H300.45L300.706 198.482C304.485 191.151 306.047 185.22 305.392 180.691C304.722 176.061 303.299 172.319 301.122 169.465L304.802 162.047C305.044 161.559 304.586 161.043 303.777 160.897C303.634 160.871 303.487 160.858 303.338 160.858H286.652C286.503 160.858 286.355 160.871 286.213 160.897C285.429 161.039 284.974 161.527 285.167 162.001L285.187 162.047L288.867 169.465C286.691 172.319 285.267 176.061 284.597 180.691C283.942 185.22 285.504 191.151 289.284 198.482L289.539 198.973Z" fill="#E16EFD"/>
<defs>
<linearGradient id="paint0_linear_26_110" x1="7.87692" y1="205.402" x2="13.6026" y2="161.669" gradientUnits="userSpaceOnUse">
<stop stop-color="#F2391A"/>
<stop offset="1" stop-color="#FF8B03"/>
</linearGradient>
<linearGradient id="paint1_linear_26_110" x1="-13.8255" y1="225.971" x2="106.122" y2="193.208" gradientUnits="userSpaceOnUse">
<stop stop-color="#F2391A"/>
<stop offset="1" stop-color="#FF8B03"/>
</linearGradient>
<linearGradient id="paint2_linear_26_110" x1="124.927" y1="233.067" x2="150.761" y2="197.886" gradientUnits="userSpaceOnUse">
<stop stop-color="#F2391A"/>
<stop offset="1" stop-color="#FF8B03"/>
</linearGradient>
</defs>
</svg>
